<?xml version="1.0" standalone="no"?>
<!DOCTYPE svg PUBLIC "-//W3C//DTD SVG 20010904//EN"
 "http://www.w3.org/TR/2001/REC-SVG-20010904/DTD/svg10.dtd">
<svg version="1.0" xmlns="http://www.w3.org/2000/svg"
 width="512.000000pt" height="512.000000pt" viewBox="0 0 512.000000 512.000000"
 preserveAspectRatio="xMidYMid meet">

<g transform="translate(0.000000,512.000000) scale(0.100000,-0.100000)"
fill="#000000" stroke="none">
<path d="M410 3555 c0 -683 4 -1155 9 -1155 5 0 16 19 24 43 8 23 124 317 257
652 133 336 281 711 330 835 49 124 136 346 194 493 58 147 106 272 106 277 0
6 -174 10 -460 10 l-460 0 0 -1155z"/>
<path d="M2770 4357 c-187 -491 -198 -520 -380 -997 -89 -234 -200 -526 -247
-650 -82 -217 -104 -273 -270 -680 -42 -102 -129 -315 -194 -475 l-117 -290
-576 -3 -576 -2 0 -425 0 -425 1025 0 1025 0 2 313 3 312 798 3 797 2 0 -315
0 -315 325 0 325 0 0 880 0 880 -145 0 -145 0 0 -455 0 -455 -110 0 -110 0 0
620 0 620 255 0 255 0 0 1105 0 1105 -902 0 -903 0 -135 -353z m1290 -1513 l0
-356 -250 4 -250 3 0 -162 0 -163 170 0 170 0 0 -455 0 -455 -182 2 -183 3
-116 194 -116 195 52 47 c100 92 141 208 133 381 -4 84 -9 114 -31 160 -53
117 -162 200 -304 232 -93 21 -488 24 -480 4 3 -7 30 -77 62 -155 l57 -143
115 0 c164 0 203 -27 203 -140 0 -102 -46 -150 -144 -150 -31 0 -56 -1 -56 -3
0 -2 232 -579 247 -615 4 -10 -17 -12 -102 -10 l-107 3 -58 145 c-31 80 -105
269 -165 420 -59 151 -143 365 -186 475 l-79 200 0 348 0 347 800 0 800 0 0
-356z m-1747 -937 c31 -95 57 -176 57 -180 0 -4 -55 -7 -121 -7 -121 0 -121 0
-116 23 9 41 112 336 117 337 3 0 31 -78 63 -173z m182 -542 c12 -33 25 -70
29 -82 l7 -23 -285 0 -285 0 30 82 c16 44 29 83 29 85 0 2 102 2 226 1 l226
-3 23 -60z"/>
</g>
</svg>
