<?xml version="1.0" standalone="no"?>
<!DOCTYPE svg PUBLIC "-//W3C//DTD SVG 20010904//EN"
 "http://www.w3.org/TR/2001/REC-SVG-20010904/DTD/svg10.dtd">
<svg version="1.0" xmlns="http://www.w3.org/2000/svg"
 width="2048.000000pt" height="2048.000000pt" viewBox="0 0 2048.000000 2048.000000"
 preserveAspectRatio="xMidYMid meet">

<g transform="translate(0.000000,2048.000000) scale(0.100000,-0.100000)"
fill="#000000" stroke="none">
<path d="M2833 18218 c-4 -7 -191 -563 -414 -1234 l-406 -1222 258 -1239 c142
-681 265 -1268 272 -1305 l14 -66 -168 -124 c-163 -119 -185 -140 -174 -159 4
-5 114 -91 246 -191 131 -100 238 -186 236 -191 -1 -4 -81 -70 -177 -146 -108
-84 -176 -145 -178 -157 -2 -16 57 -75 243 -244 135 -123 242 -227 238 -231
-5 -3 -72 -53 -151 -109 -105 -76 -142 -108 -140 -121 2 -10 88 -119 193 -241
542 -637 536 -630 548 -614 19 25 3388 1008 3405 994 7 -7 11 -20 8 -31 -4
-17 -3 -17 12 -4 9 8 532 450 1162 982 1278 1080 1171 978 1130 1086 l-20 54
-3024 2243 c-1663 1234 -3036 2252 -3052 2263 -34 22 -50 24 -61 7z"/>
<path d="M14555 15969 c-2869 -2130 -3049 -2265 -3068 -2307 -10 -25 -22 -62
-24 -82 l-5 -37 1103 -933 c607 -514 1133 -959 1168 -989 36 -31 62 -48 58
-39 -3 10 0 24 9 32 12 13 21 13 62 1 26 -8 787 -230 1691 -495 931 -272 1649
-487 1655 -495 9 -12 82 68 376 410 201 234 366 434 368 444 2 13 -34 45 -140
121 -79 56 -146 106 -151 109 -4 4 103 108 238 231 189 171 245 228 243 244
-2 13 -68 70 -185 161 -100 77 -182 142 -182 145 0 3 110 88 244 190 141 106
245 192 245 201 0 9 -73 71 -168 144 l-169 128 14 66 c7 36 130 624 272 1306
l258 1240 -412 1230 c-348 1038 -416 1230 -432 1233 -13 2 -1046 -759 -3068
-2259z"/>
<path d="M5693 10074 c-4 -11 73 -95 273 -297 782 -789 1037 -1047 1088 -1104
41 -44 70 -66 104 -78 91 -32 1705 -505 1722 -505 22 0 18 -16 80 325 28 154
100 548 160 876 61 328 110 606 110 618 0 13 -8 22 -22 25 -13 3 -453 23 -978
46 -525 22 -1049 45 -1165 50 -354 17 -1325 60 -1346 60 -11 0 -22 -7 -26 -16z"/>
<path d="M12955 10011 l-1690 -76 -3 -30 c-3 -27 48 -317 258 -1485 65 -357
58 -330 80 -330 17 0 1521 438 1694 493 l69 22 711 723 c391 398 711 731 711
740 0 14 -12 17 -70 18 -38 1 -830 -33 -1760 -75z"/>
<path d="M5150 7090 c0 -3 377 -568 837 -1257 788 -1179 838 -1252 855 -1236
9 8 26 13 37 10 15 -4 20 2 25 27 5 28 35 277 221 1856 61 516 64 546 47 562
-16 16 -89 18 -877 28 -473 6 -924 11 -1003 13 -78 1 -142 0 -142 -3z"/>
<path d="M14320 7084 c-741 -10 -991 -17 -1008 -26 -21 -11 -23 -17 -18 -58 3
-25 38 -313 76 -640 39 -327 100 -842 135 -1145 78 -655 71 -614 96 -608 11 3
28 -2 37 -10 17 -16 67 58 855 1236 460 688 837 1255 837 1260 0 4 -6 6 -12 6
-7 -1 -456 -8 -998 -15z"/>
<path d="M9166 5768 c-82 -57 -152 -110 -157 -118 -4 -8 -42 -328 -84 -710
-42 -382 -79 -702 -81 -711 -4 -16 19 -49 34 -49 4 0 41 32 84 70 l76 70 1202
0 1202 0 80 -71 c80 -70 93 -76 111 -48 6 10 -19 251 -77 730 -48 393 -88 717
-89 722 -1 4 -70 53 -152 110 -142 98 -151 102 -160 83 -11 -21 -11 -21 -920
-21 l-909 0 -6 23 c-5 21 -14 17 -154 -80z"/>
</g>
</svg>
